<svg width="620" height="500" viewBox="0 0 620 500" fill="none" xmlns="http://www.w3.org/2000/svg">
<g clip-path="url(#clip0_16572_99452)">
<path opacity="0.1" d="M318.863 500.006C473.571 500.006 598.987 388.076 598.987 250.003C598.987 111.93 473.571 0 318.863 0C164.154 0 38.7383 111.93 38.7383 250.003C38.7383 388.076 164.154 500.006 318.863 500.006Z" fill="#1F60A8"/>
<path opacity="0.1" d="M103.287 393.898C160.331 393.898 206.574 386.73 206.574 377.888C206.574 369.047 160.331 361.879 103.287 361.879C46.2432 361.879 0 369.047 0 377.888C0 386.73 46.2432 393.898 103.287 393.898Z" fill="#1F60A8"/>
<path opacity="0.1" d="M152.932 470.168C175.119 470.168 193.106 466.453 193.106 461.869C193.106 457.286 175.119 453.57 152.932 453.57C130.744 453.57 112.758 457.286 112.758 461.869C112.758 466.453 130.744 470.168 152.932 470.168Z" fill="#1F60A8"/>
<path opacity="0.1" d="M427.44 438.239C449.627 438.239 467.613 434.523 467.613 429.94C467.613 425.356 449.627 421.641 427.44 421.641C405.252 421.641 387.266 425.356 387.266 429.94C387.266 434.523 405.252 438.239 427.44 438.239Z" fill="#1F60A8"/>
<path opacity="0.1" d="M291.118 431.271C327.198 431.271 356.447 426.316 356.447 420.204C356.447 414.092 327.198 409.137 291.118 409.137C255.038 409.137 225.789 414.092 225.789 420.204C225.789 426.316 255.038 431.271 291.118 431.271Z" fill="#1F60A8"/>
<path opacity="0.1" d="M483.613 386.762C558.867 386.762 619.874 377.207 619.874 365.42C619.874 353.633 558.867 344.078 483.613 344.078C408.358 344.078 347.352 353.633 347.352 365.42C347.352 377.207 408.358 386.762 483.613 386.762Z" fill="#1F60A8"/>
<path d="M28.2412 328.172C25.1804 334.127 23.7508 340.785 24.0978 347.472C24.4449 354.158 26.5561 360.633 30.2169 366.238C31.4179 368.04 32.5228 369.337 33.4056 369.679C37.6392 371.343 46.1183 375.432 46.1183 375.432L66.5355 367.409C66.5355 367.409 69.8504 349.875 72.985 334.82C75.1228 324.551 77.1885 315.441 78.0353 313.844C80.149 309.911 78.0353 267.089 78.0353 267.089C78.0353 267.089 57.618 265.72 52.0033 281.459L49.5472 286.263L28.2412 328.172Z" fill="#A5B3BF"/>
<path opacity="0.1" d="M55.3491 332.902C67.7616 347.128 72.998 334.824 72.998 334.824C75.1358 324.555 77.2016 315.445 78.0483 313.848C80.1621 309.915 78.0483 267.093 78.0483 267.093C78.0483 267.093 57.631 265.723 52.0163 281.463L49.5602 286.267C47.9869 298.859 46.4316 322.663 55.3491 332.902Z" fill="white"/>
<path d="M58.0742 372.554L130.135 364.231L142.992 279.632L133.27 257.659C129.162 248.302 123.474 239.721 116.455 232.294C111.561 227.136 105.646 222.175 99.4251 219.683C98.575 219.341 97.707 219.044 96.8249 218.795C95.811 218.487 94.7386 218.422 93.6951 218.607C92.6516 218.792 91.6665 219.22 90.8199 219.857C81.9324 226.157 78.7557 252.939 77.7288 265.832C77.3063 271.13 76.5906 276.401 75.585 281.62L58.0742 372.554Z" fill="#A5B3BF"/>
<path opacity="0.1" d="M106.05 278.721L91.0374 315.652C98.904 309.9 110.56 278.571 110.56 278.571L121.003 314.289L112.68 276.643C113.898 268.468 114.252 260.188 113.737 251.939C113.076 242.487 104.206 227.318 99.3904 219.679C98.5403 219.337 97.6723 219.04 96.7902 218.791C95.7763 218.483 94.7039 218.418 93.6604 218.603C92.6169 218.788 91.6318 219.216 90.7852 219.854C94.5683 227.45 104.026 246.444 106.909 252.089C110.566 259.199 106.05 278.721 106.05 278.721Z" fill="white"/>
<path d="M118.305 375.432H157.404C159.012 375.432 160.604 375.105 162.082 374.472C163.56 373.838 164.894 372.91 166.002 371.744C167.11 370.579 167.97 369.2 168.528 367.692C169.087 366.184 169.333 364.577 169.252 362.971C168.387 346.205 166.195 316.312 160.983 297.336C158.166 287.097 154.894 281.723 151.891 279.074C150.483 277.716 148.665 276.861 146.721 276.642C145.246 276.515 143.769 276.873 142.517 277.663C135.257 284.623 126.778 321.248 126.778 321.248L118.305 375.432Z" fill="#A5B3BF"/>
<path opacity="0.1" d="M154.402 342.948C156.011 347.409 156.648 352.556 154.402 357.57L145.688 361.876C145.688 361.876 122.269 351.949 125.115 331.604C125.115 331.604 125.884 327.401 133.948 327.725C138.484 327.944 142.852 329.509 146.494 332.22C150.137 334.931 152.89 338.666 154.402 342.948Z" fill="white"/>
<path opacity="0.1" d="M145.094 289.467C144.824 282.333 148.697 279.859 151.898 279.073C150.49 277.714 148.672 276.859 146.727 276.641C144.5 278.505 142.921 281.028 142.218 283.847L134.051 323.654C134.051 323.654 145.55 301.424 145.094 289.467Z" fill="white"/>
<path d="M108.021 320.945L127.381 347.428L130.738 369.286L118.295 375.429L100.358 379.393C98.6308 379.776 96.8545 379.892 95.0918 379.735L46.1445 375.429L52.8042 359.99L75.8036 327.701L108.021 320.945Z" fill="#A5B3BF"/>
<path opacity="0.1" d="M100.524 311.854C100.524 311.854 113.735 312.761 108.775 335.46C103.814 358.159 52.7773 359.979 52.7773 359.979C52.7773 359.979 63.6225 340.763 80.3046 326.993C82.1782 325.45 83.9857 323.84 85.7091 322.123C89.5464 318.286 96.8846 311.542 100.524 311.854Z" fill="white"/>
<path opacity="0.1" d="M112.41 328.969C112.41 328.969 130.311 345.26 128.624 370.332L112.41 328.969Z" fill="black"/>
<path opacity="0.1" d="M142.524 277.664C142.524 277.664 123.741 302.645 121.633 341.084L142.524 277.664Z" fill="black"/>
<path opacity="0.1" d="M78.0528 267.074C78.0528 267.074 87.1445 308.359 64.4453 339.477L78.0528 267.074Z" fill="black"/>
<path d="M243.643 419.977H341.61C342.557 419.972 343.486 419.722 344.308 419.252C345.13 418.781 345.816 418.106 346.3 417.292C346.783 416.477 347.048 415.552 347.068 414.605C347.088 413.658 346.863 412.723 346.414 411.889L297.455 320.924C296.985 320.052 296.289 319.323 295.439 318.815C294.589 318.307 293.617 318.039 292.627 318.039C291.636 318.039 290.665 318.307 289.814 318.815C288.964 319.323 288.268 320.052 287.799 320.924L238.815 411.889C238.366 412.724 238.14 413.662 238.162 414.611C238.183 415.56 238.449 416.487 238.936 417.302C239.422 418.117 240.112 418.792 240.937 419.26C241.762 419.729 242.694 419.976 243.643 419.977ZM298.86 403.355H286.393V390.895H298.86V403.355ZM298.86 382.584H286.393V357.657H298.86V382.584Z" fill="#464353"/>
<path opacity="0.1" d="M243.643 419.977H341.61C342.557 419.972 343.486 419.722 344.308 419.252C345.13 418.781 345.816 418.106 346.3 417.292C346.783 416.477 347.048 415.552 347.068 414.605C347.088 413.658 346.863 412.723 346.414 411.889L297.455 320.924C296.985 320.052 296.289 319.323 295.439 318.815C294.589 318.307 293.617 318.039 292.627 318.039C291.636 318.039 290.665 318.307 289.814 318.815C288.964 319.323 288.268 320.052 287.799 320.924L238.815 411.889C238.366 412.724 238.14 413.662 238.162 414.611C238.183 415.56 238.449 416.487 238.936 417.302C239.422 418.117 240.112 418.792 240.937 419.26C241.762 419.729 242.694 419.976 243.643 419.977ZM298.86 403.355H286.393V390.895H298.86V403.355ZM298.86 382.584H286.393V357.657H298.86V382.584Z" fill="black"/>
<path d="M243.643 422.977H341.61C342.557 422.972 343.486 422.722 344.308 422.252C345.13 421.781 345.816 421.106 346.3 420.292C346.783 419.477 347.048 418.552 347.068 417.605C347.088 416.658 346.863 415.723 346.414 414.889L297.455 323.924C296.985 323.052 296.289 322.323 295.439 321.815C294.589 321.307 293.617 321.039 292.627 321.039C291.636 321.039 290.665 321.307 289.814 321.815C288.964 322.323 288.268 323.052 287.799 323.924L238.815 414.889C238.366 415.724 238.14 416.662 238.162 417.611C238.183 418.56 238.449 419.487 238.936 420.302C239.422 421.117 240.112 421.792 240.937 422.261C241.762 422.729 242.694 422.976 243.643 422.977ZM298.86 406.355H286.393V393.895H298.86V406.355ZM298.86 385.584H286.393V360.657H298.86V385.584Z" fill="#464353"/>
<path d="M140.406 142.151C140.34 143.406 140.964 144.553 141.33 145.754C141.936 148.074 141.876 150.518 141.156 152.804C140.484 155.206 139.355 157.747 140.213 160.095C140.412 160.647 140.712 161.151 140.892 161.704C141.637 163.986 140.255 166.388 138.742 168.255L144.681 172.417C145.548 173.136 146.58 173.629 147.684 173.852C148.795 173.984 150.086 173.39 150.314 172.297C150.392 171.925 150.314 171.534 150.386 171.156C150.459 170.667 150.648 170.202 150.938 169.801C151.227 169.4 151.608 169.074 152.049 168.85C152.941 168.413 153.936 168.228 154.926 168.316C158.571 168.514 161.67 170.91 164.984 172.447C167.17 173.393 169.434 174.145 171.752 174.693C173.067 175.035 174.526 175.347 175.715 174.693C176.904 174.038 177.451 172.519 177.361 171.144C177.176 169.776 176.749 168.452 176.1 167.235C175.444 166.018 175.05 164.679 174.941 163.301C174.941 161.284 176.046 159.446 176.418 157.464C176.94 154.648 175.878 151.784 174.58 149.225C173.283 146.667 171.71 144.205 171.079 141.419C170.954 140.574 170.735 139.746 170.425 138.951C170.124 138.347 169.718 137.801 169.224 137.341C166.996 135.138 163.819 134.093 160.709 133.864C157.598 133.636 154.457 134.147 151.371 134.681C150.193 134.849 149.033 135.125 147.906 135.504C146.295 136.144 144.765 136.973 143.348 137.972C141.943 138.945 140.496 140.368 140.406 142.151Z" fill="#464353"/>
<g opacity="0.1">
<path opacity="0.1" d="M174.922 162.071C174.922 162.251 174.922 162.431 174.958 162.605C175.144 160.846 176.069 159.194 176.399 157.435C176.527 156.73 176.565 156.011 176.514 155.297C176.514 155.609 176.454 155.897 176.399 156.234C176.021 158.215 174.898 160.053 174.922 162.071Z" fill="black"/>
<path opacity="0.1" d="M141.73 148.155C141.801 146.94 141.665 145.722 141.328 144.552C140.973 143.641 140.682 142.706 140.457 141.754C140.457 141.88 140.409 142 140.403 142.126C140.337 143.381 140.962 144.528 141.328 145.729C141.56 146.519 141.695 147.333 141.73 148.155Z" fill="black"/>
<path opacity="0.1" d="M177.305 170.813C177.263 171.35 177.096 171.869 176.816 172.329C176.537 172.789 176.153 173.177 175.696 173.461C174.495 174.116 173.048 173.803 171.733 173.461C169.414 172.914 167.149 172.16 164.965 171.209C161.65 169.678 158.551 167.282 154.906 167.084C153.917 166.996 152.922 167.181 152.03 167.618C151.589 167.842 151.207 168.168 150.918 168.569C150.629 168.97 150.44 169.435 150.366 169.924C150.324 170.302 150.366 170.693 150.294 171.065C150.06 172.158 148.775 172.753 147.664 172.62C146.56 172.397 145.529 171.904 144.662 171.185L139.323 167.438C139.125 167.708 138.927 167.973 138.723 168.219L144.662 172.386C145.529 173.105 146.56 173.598 147.664 173.821C148.775 173.954 150.066 173.359 150.294 172.266C150.372 171.894 150.294 171.504 150.366 171.125C150.44 170.636 150.629 170.171 150.918 169.77C151.207 169.369 151.589 169.043 152.03 168.819C152.922 168.382 153.917 168.197 154.906 168.285C158.551 168.483 161.65 170.879 164.965 172.41C167.149 173.361 169.414 174.115 171.733 174.662C173.048 175.004 174.507 175.317 175.696 174.662C176.885 174.008 177.431 172.488 177.341 171.113C177.335 171.011 177.317 170.915 177.305 170.813Z" fill="black"/>
<path opacity="0.1" d="M140.889 161.674C140.963 161.916 141.018 162.163 141.052 162.413C141.145 161.763 141.089 161.1 140.889 160.473C140.709 159.921 140.409 159.417 140.211 158.864C140.066 158.463 139.974 158.045 139.935 157.621C139.846 158.446 139.94 159.281 140.211 160.065C140.409 160.618 140.709 161.128 140.889 161.674Z" fill="black"/>
</g>
<path d="M147.943 389.535C147.902 389.706 147.804 389.858 147.667 389.968C147.52 390.044 147.357 390.079 147.192 390.07C145.054 390.118 142.917 390.07 140.785 390.22C138.767 390.394 136.743 390.82 134.732 390.592C134.088 390.615 133.453 390.437 132.915 390.083C132.377 389.729 131.963 389.217 131.729 388.617C131.602 388.355 131.49 388.086 131.393 387.812C130.839 386.396 130.559 384.888 130.57 383.368C130.57 382.966 130.57 382.575 130.57 382.167C130.544 381.727 130.486 381.29 130.396 380.858C130.214 380.364 130.235 379.817 130.456 379.339C131.309 377.783 133.368 377.471 134.954 377.351C138.627 377.074 142.32 377.346 145.913 378.156C146.195 379.537 146.514 380.906 146.85 382.275C147.098 383.28 147.362 384.281 147.643 385.278C147.831 385.895 147.983 386.523 148.099 387.157C148.247 387.95 148.194 388.768 147.943 389.535Z" fill="#464353"/>
<path opacity="0.06" d="M147.941 389.537C147.899 389.708 147.802 389.86 147.664 389.969C147.518 390.045 147.354 390.08 147.19 390.071C145.052 390.119 142.914 390.071 140.783 390.222C138.765 390.396 136.741 390.822 134.729 390.594C134.086 390.617 133.451 390.439 132.913 390.085C132.375 389.731 131.961 389.218 131.727 388.618C131.6 388.356 131.488 388.088 131.391 387.813H132.159C134.687 387.813 137.222 387.723 139.75 387.723C140.512 387.723 141.281 387.687 142.038 387.597C142.794 387.507 143.413 387.381 144.103 387.297C145.137 387.198 146.176 387.156 147.214 387.171H148.067C148.223 387.958 148.179 388.771 147.941 389.537Z" fill="black"/>
<path d="M192.167 378.386C191.498 379.168 190.643 379.769 189.681 380.134C185.405 381.935 180.463 381.125 176.049 379.66C175.062 379.293 174.048 379.002 173.017 378.789C172.076 378.657 171.127 378.591 170.177 378.591C169.498 378.591 168.819 378.537 168.141 378.495C166.423 378.386 164.712 378.218 163.006 378.05C161.817 377.963 160.637 377.784 159.475 377.516C159.145 377.431 158.828 377.302 158.533 377.131C158.281 377.021 158.066 376.84 157.912 376.612C157.759 376.383 157.674 376.115 157.668 375.84C157.716 375.078 158.509 374.639 159.205 374.309C165.384 371.637 172.098 370.478 178.764 369.547C179.442 369.434 180.102 369.232 180.727 368.947C181.478 368.646 181.556 369.139 181.928 369.691C182.104 369.947 182.306 370.184 182.529 370.4C183.253 371.054 184.103 371.552 185.027 371.865C186.648 372.466 188.384 372.628 190.005 373.198C190.496 373.368 190.965 373.594 191.404 373.871C191.792 374.082 192.126 374.379 192.382 374.739C192.637 375.099 192.806 375.513 192.877 375.949C192.948 376.385 192.918 376.831 192.79 377.254C192.661 377.676 192.438 378.064 192.137 378.386H192.167Z" fill="#464353"/>
<path opacity="0.06" d="M192.167 378.387C191.498 379.168 190.643 379.769 189.681 380.134C185.405 381.936 180.463 381.125 176.049 379.66C175.062 379.293 174.048 379.002 173.017 378.789C172.076 378.657 171.127 378.591 170.176 378.591C169.498 378.591 168.819 378.537 168.141 378.495C168.693 377.973 169.258 377.462 169.834 376.97C170.252 376.579 170.733 376.262 171.257 376.033C171.91 375.819 172.605 375.771 173.281 375.895C176.716 376.369 179.802 378.777 183.267 378.567C184.882 378.381 186.443 377.877 187.861 377.084C189.015 376.614 190.043 375.882 190.864 374.946C191.112 374.623 191.301 374.259 191.422 373.871C191.81 374.082 192.144 374.379 192.4 374.74C192.655 375.1 192.824 375.514 192.895 375.949C192.966 376.385 192.936 376.832 192.807 377.254C192.679 377.676 192.456 378.064 192.155 378.387H192.167Z" fill="black"/>
<path d="M190.962 274.022C190.361 275.223 189.593 276.526 188.296 276.898C186.41 277.439 184.596 275.745 183.774 273.968C182.652 271.359 182.441 268.448 183.173 265.705C183.516 264.317 184.038 262.984 184.332 261.591C184.545 260.419 184.673 259.233 184.717 258.042C184.894 256.266 184.852 254.475 184.59 252.71C183.624 247.551 179.186 243.702 177.709 238.634C176.964 236.106 177 233.415 177.042 230.779C177.028 230.113 177.097 229.447 177.246 228.798C177.291 228.62 177.351 228.448 177.426 228.281C178.417 226.083 181.354 225.783 183.395 224.504C184.524 223.801 187.089 221.537 188.037 223.603C188.242 224.063 188.395 224.544 188.494 225.038C188.884 226.876 188.728 229.032 188.824 230.767C189.19 237.325 190.824 243.87 190.067 250.392C189.887 251.503 189.798 252.628 189.803 253.755C189.965 256.577 191.73 259.021 192.541 261.723C193.79 265.789 192.787 270.214 190.962 274.022Z" fill="#FBBEBE"/>
<path opacity="0.1" d="M188.525 225.051C188.079 224.889 187.59 224.889 187.144 225.051L183.078 226.252C181.654 226.632 180.265 227.136 178.929 227.759C178.345 228.045 177.792 228.389 177.277 228.786C177.322 228.609 177.382 228.436 177.458 228.269C178.448 226.072 181.385 225.771 183.427 224.492C184.555 223.79 187.12 221.526 188.068 223.591C188.275 224.059 188.428 224.549 188.525 225.051Z" fill="black"/>
<path d="M188.789 224.597C188.544 224.448 188.268 224.359 187.982 224.336C187.696 224.313 187.409 224.357 187.144 224.465L183.078 225.666C181.654 226.046 180.265 226.55 178.929 227.173C178.219 227.518 177.556 227.95 176.953 228.458C175.055 225.162 174.551 221.252 174.203 217.469C174.011 215.265 173.866 213.055 173.782 210.864C173.688 209.286 173.72 207.704 173.878 206.132C174.107 204.33 174.629 202.571 174.953 200.781C175.146 199.733 175.271 198.674 175.326 197.61C175.481 195.286 175.375 192.951 175.007 190.651C174.658 188.205 174.1 185.794 173.338 183.444C172.954 182.37 172.491 181.331 172.071 180.274L171.927 179.901C171.168 177.964 170.547 175.976 170.071 173.95C169.879 173.122 169.867 172.251 169.23 171.687C169.828 171.615 170.431 171.59 171.032 171.614C171.152 171.614 171.272 171.614 171.392 171.614C173.859 171.77 176.236 172.601 178.262 174.016C180.872 175.899 182.855 178.523 183.955 181.547C185.222 184.928 185.432 188.603 185.594 192.212C185.919 199.306 186.119 206.404 186.195 213.506C186.195 214.869 186.255 216.322 187.035 217.445C187.255 217.722 187.455 218.013 187.636 218.316C187.918 218.916 187.876 219.583 188.104 220.189C188.272 220.553 188.463 220.906 188.675 221.246C188.944 221.761 189.094 222.329 189.113 222.909C189.133 223.489 189.022 224.066 188.789 224.597Z" fill="#464353"/>
<path d="M148.817 154.108C148.217 153.91 147.616 153.7 147.016 153.508L148.265 153.604C148.473 153.744 148.659 153.914 148.817 154.108Z" fill="#FBBEBE"/>
<path d="M173.408 175.781C173.288 176.19 173.167 176.598 173.035 176.982C172.73 177.969 172.359 178.934 171.924 179.871C171.244 181.41 170.28 182.807 169.084 183.99C168.689 184.406 168.204 184.727 167.667 184.927C167.212 185.043 166.742 185.088 166.274 185.059C164.672 185.059 163.071 185.035 161.47 184.987C160.223 185.001 158.978 184.878 157.758 184.621C156.416 184.255 155.139 183.679 153.975 182.915C149.489 180.141 145.802 175.914 144.223 170.905C144.025 170.269 143.887 169.506 144.325 169.008C144.756 168.656 145.3 168.47 145.856 168.485H145.928C147.22 168.317 148.463 167.89 149.586 167.23C150.312 166.858 150.898 166.259 151.255 165.525C151.498 164.654 151.479 163.731 151.201 162.87L149.868 156.817C149.729 155.848 149.365 154.924 148.805 154.121C149.195 154.259 149.586 154.385 150.006 154.493C153.717 155.496 157.776 154.89 161.416 156.205C162.809 156.715 164.202 157.634 164.622 159.063C165.325 161.465 162.977 163.957 163.649 166.359C164.1 167.993 165.763 168.936 167.252 169.698L168.255 170.209L171.036 171.62L171.42 171.812L171.48 171.842C172.357 172.286 173.282 172.839 173.588 173.782C173.718 174.452 173.656 175.145 173.408 175.781Z" fill="#FBBEBE"/>
<path opacity="0.1" d="M180.734 189.878C180.632 191.414 180.258 192.918 179.629 194.322C178.423 196.75 177.777 199.418 177.737 202.129C177.275 210.236 174.194 219.886 178.608 226.696C178.716 226.864 178.824 227.032 178.926 227.206C178.217 227.551 177.553 227.983 176.951 228.491C175.053 225.194 174.549 221.285 174.2 217.502C174.008 215.298 173.864 213.088 173.78 210.896C173.686 209.319 173.718 207.736 173.876 206.164C174.104 204.363 174.627 202.603 174.951 200.814C175.144 199.766 175.268 198.707 175.323 197.643C175.479 195.318 175.372 192.984 175.005 190.683C174.656 188.238 174.097 185.827 173.336 183.477C172.951 182.402 172.489 181.363 172.069 180.306L171.924 179.934C171.244 181.473 170.28 182.87 169.084 184.054C168.689 184.47 168.204 184.79 167.667 184.99C167.212 185.107 166.742 185.151 166.274 185.122C164.672 185.122 163.071 185.098 161.47 185.05C160.223 185.064 158.978 184.941 157.758 184.684C156.416 184.318 155.139 183.742 153.975 182.979C149.489 180.204 145.802 175.977 144.223 170.969C144.025 170.332 143.887 169.569 144.325 169.071C144.756 168.719 145.3 168.534 145.856 168.548H145.928L151.333 175.232C151.953 175.939 152.478 176.725 152.894 177.568C152.975 177.851 153.143 178.101 153.375 178.283C153.563 178.369 153.769 178.406 153.975 178.391C159.05 178.391 165.811 178.391 170.886 178.391C170.902 177.492 170.642 176.609 170.141 175.863C169.985 175.899 169.775 175.911 170.099 175.815C169.805 173.865 169.176 171.982 168.237 170.248C168.181 170.129 168.119 170.012 168.051 169.9C167.648 169.305 167.347 168.648 167.162 167.954C167.803 167.75 168.491 167.75 169.132 167.954C169.871 168.272 170.255 169.071 170.579 169.81C170.855 170.41 171.132 171.053 171.378 171.683C171.378 171.749 171.438 171.821 171.462 171.887C171.986 173.13 172.322 174.443 172.459 175.785C172.495 176.277 172.615 176.902 173.023 177.064C173.088 177.093 173.157 177.109 173.227 177.112C173.65 176.957 174.11 176.931 174.547 177.038C174.984 177.145 175.38 177.38 175.684 177.712C176.274 178.389 176.687 179.202 176.885 180.078C177.08 180.954 177.366 181.807 177.737 182.624C178.512 184.102 177.329 184.762 178.728 185.669C179.382 186.029 179.945 186.534 180.374 187.146C180.769 187.999 180.895 188.952 180.734 189.878Z" fill="black"/>
<path opacity="0.1" d="M145.858 378.183C146.141 379.564 146.459 380.933 146.795 382.303L146.759 382.387C144.015 381.186 141.204 379.931 138.208 379.666C135.428 379.426 132.407 380.177 130.515 382.194C130.489 381.754 130.431 381.317 130.341 380.885C130.159 380.391 130.181 379.844 130.401 379.366C131.254 377.811 133.314 377.498 134.899 377.378C138.572 377.102 142.265 377.373 145.858 378.183Z" fill="black"/>
<path opacity="0.1" d="M169.509 176.965C169.792 176.965 169.69 176.965 169.551 177.013C169.413 177.061 169.185 177.061 169.509 176.965Z" fill="black"/>
<path opacity="0.1" d="M182.559 370.4C179.881 372.106 177.364 374.054 175.041 376.219C174.366 376.941 173.561 377.53 172.669 377.954C171.747 378.251 170.773 378.351 169.81 378.248C166.033 378.096 162.267 377.723 158.533 377.131C158.281 377.021 158.066 376.84 157.912 376.612C157.759 376.383 157.674 376.116 157.668 375.84C157.716 375.078 158.509 374.639 159.205 374.309C165.384 371.637 172.098 370.478 178.764 369.547C179.442 369.434 180.102 369.232 180.727 368.947C181.478 368.646 181.556 369.139 181.928 369.691C182.114 369.948 182.325 370.186 182.559 370.4Z" fill="black"/>
<path d="M138.499 169.997C139.382 170.783 140.391 171.42 141.285 172.182C143.687 174.218 145.201 177.065 146.69 179.839C145.807 180.158 144.852 180.223 143.934 180.025C143.461 182.689 143.541 185.422 144.168 188.054C142.966 188.878 142.033 190.037 141.483 191.387C141.057 192.756 140.763 194.164 140.607 195.59C139.742 201.84 138.873 208.089 138.001 214.338C137.983 214.95 137.773 215.54 137.4 216.025C137.233 216.16 137.08 216.311 136.944 216.476C136.76 216.88 136.687 217.326 136.733 217.767C136.697 218.205 136.409 218.728 135.971 218.668C135.758 218.617 135.569 218.494 135.436 218.319C134.998 217.855 134.596 217.357 134.235 216.83C130.692 223.628 128.987 230.954 127.113 238.388C125.774 243.685 124.435 249.041 124.369 254.506C124.387 257.091 124.549 259.673 124.855 262.24L125.384 267.513C125.81 271.752 126.237 275.998 126.699 280.238C126.999 282.928 127.3 285.642 128.266 288.176C129.708 292.026 128.11 296.367 128.723 300.439C129.203 303.627 130.158 306.924 129.197 309.999C128.813 311.23 128.14 312.353 127.636 313.542C126.399 316.496 126.273 319.781 126.165 322.982C125.97 325.787 126.075 328.605 126.477 331.389C126.993 334.265 128.152 337.082 127.924 339.988C127.606 344.126 124.555 347.663 124.183 351.794C123.889 355.091 125.336 358.273 126.891 361.198C128.038 363.354 126.441 366.14 125.834 368.512C124.633 373.16 126.633 378.024 129.083 382.15C129.145 382.291 129.256 382.406 129.395 382.474C129.677 382.576 129.93 382.3 130.116 382.066C131.959 379.7 135.226 378.805 138.223 379.063C141.219 379.321 144.024 380.558 146.774 381.783L150.671 373.106C151.332 371.635 152.004 370.043 151.674 368.464C151.44 367.335 150.713 366.38 150.197 365.347C148.996 362.909 148.936 360.069 148.924 357.337L148.852 341.904C151.89 338.084 153.746 333.545 154.917 328.801C156.713 335.473 156.837 342.486 155.277 349.218C154.988 350.236 154.788 351.276 154.677 352.328C154.442 356.61 157.799 360.231 158.694 364.423C158.781 364.743 158.805 365.078 158.766 365.408C158.665 365.813 158.497 366.199 158.268 366.548C156.658 369.467 156.832 373.004 157.067 376.331C161.278 377.064 165.532 377.519 169.803 377.694C170.766 377.79 171.739 377.69 172.662 377.4C173.555 376.973 174.359 376.382 175.034 375.658C177.76 373.094 180.754 370.829 183.963 368.902C182.171 365.929 179.663 363.451 176.667 361.696C177.634 360.273 179.838 360.387 181.123 359.246C181.768 358.608 182.19 357.778 182.324 356.88C182.804 354.526 182.21 352.076 181.615 349.764C180.462 345.212 179.303 340.643 177.412 336.343C176.556 334.576 175.802 332.761 175.154 330.908C173.581 325.732 174.679 320.099 173.49 314.809C173.106 313.115 172.488 311.368 172.92 309.68C173.581 307.08 176.523 305.537 177.172 302.931C179.496 293.653 179.91 284.039 181.231 274.569C181.527 272.76 181.685 270.931 181.705 269.098C181.705 267.183 181.363 265.285 181.225 263.375C180.685 255.731 183.129 248.105 182.504 240.466C182.104 235.759 180.553 231.222 177.988 227.255C173.575 220.439 176.655 210.795 177.118 202.688C177.152 199.977 177.797 197.309 179.003 194.882C179.637 193.479 180.014 191.974 180.114 190.438C180.299 189.491 180.182 188.51 179.778 187.634C179.355 187.019 178.794 186.513 178.138 186.156C176.739 185.243 177.922 184.583 177.148 183.106C176.775 182.289 176.489 181.436 176.295 180.56C176.098 179.685 175.685 178.873 175.094 178.2C174.79 177.867 174.394 177.633 173.957 177.526C173.52 177.419 173.061 177.444 172.638 177.599C172.067 177.599 171.911 176.842 171.863 176.272C171.701 174.182 170.836 172.218 169.99 170.297C169.665 169.558 169.281 168.76 168.542 168.441C167.899 168.24 167.21 168.24 166.567 168.441C166.753 169.138 167.055 169.798 167.461 170.393C168.502 172.219 169.195 174.223 169.503 176.302C168.903 176.482 170.104 176.302 169.503 176.302C170.041 177.051 170.317 177.956 170.29 178.878C165.221 178.878 158.46 178.878 153.386 178.878C153.179 178.894 152.973 178.857 152.785 178.77C152.554 178.587 152.384 178.338 152.299 178.055C151.886 177.212 151.36 176.428 150.737 175.725L144.792 168.393C144.66 168.202 144.486 168.043 144.282 167.931C144.036 167.862 143.777 167.862 143.531 167.931C141.604 168.213 140.18 169.018 138.499 169.997Z" fill="#1F60A8"/>
<path opacity="0.1" d="M159.836 269.344C160.861 269.33 161.871 269.592 162.76 270.101C163.202 270.361 163.568 270.731 163.823 271.175C164.078 271.62 164.212 272.123 164.213 272.635C164.147 273.77 163.277 274.671 162.646 275.638C162.256 276.227 161.945 276.865 161.721 277.535C161.652 277.688 161.635 277.859 161.673 278.022C161.745 278.25 161.992 278.364 162.202 278.466C162.966 278.812 163.618 279.363 164.086 280.059C164.554 280.755 164.818 281.567 164.85 282.405C164.796 284.747 162.508 286.645 162.634 289.011C162.691 289.504 162.776 289.993 162.886 290.476C163.161 292.493 162.881 294.546 162.076 296.415C161.349 298.301 160.358 300.072 159.577 301.94C157.47 307.014 157.013 312.635 157.175 318.153C157.302 321.901 155.974 325.468 154.773 329.035C155.452 321.85 155.633 314.626 155.314 307.416C155.23 305.459 154.984 303.609 155.074 301.646C155.218 298.529 156.959 295.695 157.404 292.638C157.656 290.89 157.488 289.113 157.53 287.347C157.614 283.744 158.593 280.189 158.659 276.574C158.743 274.022 158.509 271.392 159.836 269.344Z" fill="black"/>
<path d="M134.78 171.281C133.586 171.876 132.469 172.614 131.453 173.479C130.391 174.533 129.504 175.75 128.823 177.082C127.993 178.592 127.25 180.148 126.595 181.742C125.748 183.808 125.045 186.095 125.628 188.251C126.156 190.203 127.652 191.722 128.684 193.458C129.717 195.193 130.324 197.229 131.117 199.132C132.173 201.673 133.621 204.039 134.666 206.585C135.71 209.131 136.341 211.989 135.68 214.638C135.488 215.418 134.221 216.025 134.221 216.823C134.221 218.145 136.131 219.58 137.398 219.964C138.857 220.414 140.448 219.742 141.643 218.763C143.835 217.028 145.168 214.427 146.153 211.809C147.739 207.606 148.585 203.144 149.348 198.712C149.9 195.457 150.417 192.197 150.711 188.918C150.981 185.963 151.065 182.913 150.285 180.078C149.556 177.477 148.139 175.12 146.183 173.257C144.622 171.755 142.064 169.738 139.794 169.684C137.998 169.678 136.317 170.434 134.78 171.281Z" fill="#464353"/>
<path d="M151.85 243.675C151.785 244.085 151.632 244.476 151.401 244.822C151.169 245.167 150.866 245.458 150.511 245.674C149.803 246.105 149.031 246.421 148.223 246.611C146.614 247.08 144.909 247.512 143.281 247.098C142.002 246.681 140.821 246.009 139.81 245.122L121.627 231.202C120.166 230.167 118.823 228.975 117.622 227.647C116.932 226.79 116.298 225.889 115.724 224.951C114.964 223.876 114.369 222.694 113.958 221.444C113.812 220.894 113.739 220.326 113.742 219.757C113.737 219.218 113.87 218.687 114.127 218.213C114.565 217.481 115.502 217.33 116.27 217.126C118.85 216.459 121.528 216.256 124.179 216.526C124.412 216.515 124.642 216.579 124.835 216.71C125.028 216.842 125.173 217.032 125.248 217.252C125.65 217.991 125.999 218.76 126.359 219.528C126.912 220.839 127.633 222.072 128.503 223.197C129.341 224.109 130.234 224.969 131.175 225.774C133.097 227.575 134.67 229.737 136.718 231.394C139.09 233.31 141.972 234.457 144.674 235.868C147.377 237.279 150.043 239.111 151.4 241.843C151.715 242.401 151.871 243.034 151.85 243.675Z" fill="#FBBEBE"/>
<path opacity="0.1" d="M172.897 146.561C172.898 150.353 171.45 154.001 168.85 156.76C166.25 159.52 162.695 161.182 158.91 161.406C155.125 161.631 151.398 160.401 148.49 157.969C145.581 155.537 143.712 152.085 143.264 148.32C142.816 144.556 143.824 140.762 146.08 137.715C148.336 134.668 151.671 132.599 155.403 131.929C159.135 131.26 162.981 132.041 166.156 134.113C169.331 136.186 171.594 139.393 172.483 143.078C172.759 144.219 172.898 145.388 172.897 146.561Z" fill="black"/>
<path d="M172.897 145.96C172.898 149.751 171.45 153.399 168.85 156.159C166.25 158.918 162.695 160.58 158.91 160.805C155.125 161.029 151.398 159.8 148.49 157.367C145.581 154.935 143.712 151.484 143.264 147.719C142.816 143.954 143.824 140.16 146.08 137.114C148.336 134.067 151.671 131.997 155.403 131.327C159.135 130.658 162.981 131.439 166.156 133.512C169.331 135.584 171.594 138.791 172.483 142.477C172.759 143.617 172.898 144.786 172.897 145.96Z" fill="#FBBEBE"/>
<path opacity="0.1" d="M126.359 219.504C125.674 219.943 124.66 219.799 123.813 219.606C120.474 218.862 116.787 218.327 113.742 219.757C113.737 219.218 113.87 218.687 114.127 218.213C114.565 217.481 115.502 217.33 116.27 217.126C118.85 216.459 121.528 216.256 124.179 216.526C124.412 216.515 124.642 216.579 124.835 216.71C125.028 216.842 125.173 217.032 125.248 217.252C125.65 217.967 125.999 218.736 126.359 219.504Z" fill="black"/>
<path d="M120.083 199.284C119.345 201.686 118.738 204.154 117.291 206.189C116.812 206.725 116.452 207.355 116.234 208.039C116.218 208.544 116.135 209.045 115.988 209.528C115.784 209.937 115.351 210.207 115.177 210.627C114.919 211.228 115.255 212.002 114.913 212.567C114.753 212.793 114.561 212.996 114.342 213.167C113.526 213.924 113.322 215.131 113.304 216.248C113.286 217.365 113.394 218.506 113.027 219.557C116.198 217.665 120.233 218.23 123.836 219.034C124.839 219.256 126.082 219.425 126.731 218.62C127.379 217.815 127.007 216.758 127.097 215.791C127.217 214.53 128.082 213.486 128.616 212.339C129.217 211.047 129.421 209.606 129.884 208.261C130.838 205.433 132.886 203.127 134.201 200.455C134.688 199.536 134.978 198.525 135.054 197.488C135.009 196.144 134.657 194.827 134.027 193.639C132.777 190.871 131.291 188.217 129.583 185.706C128.821 184.583 127.506 182.505 126.323 184.301C125.362 185.748 124.761 187.592 124.053 189.177C122.526 192.462 121.2 195.837 120.083 199.284Z" fill="#464353"/>
<path d="M174.266 175.972C172.463 176.097 170.655 175.817 168.974 175.153C167.293 174.489 165.782 173.458 164.55 172.135C164.343 171.946 164.193 171.703 164.118 171.433C164.083 171.081 164.182 170.73 164.394 170.448C165.115 169.337 166.358 168.604 166.934 167.409C167.511 166.214 167.313 164.839 167.367 163.53C167.463 161.182 168.387 158.858 168.465 156.546C168.493 155.954 168.449 155.362 168.333 154.781C168.057 153.918 167.888 153.024 167.829 152.12C167.907 150.361 169.492 148.992 169.757 147.256C170.099 145.046 168.267 143.125 166.424 141.852C165.018 140.877 163.492 140.088 161.884 139.504C160.896 139.15 159.874 138.902 158.833 138.765C156.894 138.503 154.92 138.724 153.087 139.408C152.328 139.694 151.609 140.077 150.949 140.549C150.555 140.797 150.228 141.137 149.994 141.539C149.801 141.992 149.715 142.483 149.742 142.975C149.706 145.431 149.982 148.043 148.811 150.181C148.21 151.328 147.19 152.258 146.691 153.471C146.487 153.976 146.36 154.508 146.313 155.051C146.253 155.613 146.223 156.179 146.223 156.744C146.187 159.909 146.223 163.248 147.832 165.992C148.4 166.822 148.915 167.686 149.375 168.58C149.598 169.032 149.702 169.534 149.675 170.038C149.649 170.542 149.494 171.03 149.225 171.457C148.9 171.846 148.489 172.154 148.024 172.357C146.832 172.93 145.534 173.249 144.213 173.297C142.891 173.344 141.574 173.119 140.344 172.634C141.782 171.27 142.771 169.5 143.176 167.56C143.582 165.62 143.386 163.602 142.614 161.776C142.18 161.039 141.898 160.222 141.785 159.374C141.845 158.611 142.049 157.865 142.385 157.177C143.209 154.92 143.336 152.468 142.752 150.139C142.385 148.709 141.749 147.328 141.635 145.857C141.54 144.747 141.588 143.628 141.779 142.53C142.108 140.566 142.974 138.73 144.28 137.226C145.587 135.723 147.284 134.609 149.183 134.009C149.489 133.907 149.784 133.811 150.12 133.727C151.577 133.403 153.065 133.244 154.558 133.252C157.891 133.144 161.271 133.048 164.484 133.919C166.37 134.413 168.125 135.315 169.624 136.561C170.689 137.456 171.538 138.579 172.111 139.846C172.423 140.576 172.659 141.337 172.813 142.116C172.951 142.758 173.053 143.407 173.155 144.056C173.882 148.673 174.609 153.381 173.834 157.993C173.528 159.795 172.993 161.596 172.753 163.434C172.171 167.667 173.221 171.877 174.266 175.972Z" fill="#464353"/>
<path d="M152.929 181.906C153.546 181.906 154.046 181.406 154.046 180.789C154.046 180.172 153.546 179.672 152.929 179.672C152.313 179.672 151.812 180.172 151.812 180.789C151.812 181.406 152.313 181.906 152.929 181.906Z" fill="white"/>
<path d="M171.781 181.378C172.398 181.378 172.898 180.878 172.898 180.261C172.898 179.645 172.398 179.145 171.781 179.145C171.164 179.145 170.664 179.645 170.664 180.261C170.664 180.878 171.164 181.378 171.781 181.378Z" fill="white"/>
<path opacity="0.1" d="M152.929 124.341L150.527 119.807C150.68 119.626 150.846 119.457 151.026 119.303C151.373 119.089 151.779 118.992 152.185 119.026L152.929 124.341Z" fill="black"/>
<path opacity="0.1" d="M159.555 118.817L156.834 122.84L155.285 118.426C155.946 118.142 156.662 118.007 157.381 118.03C158.144 118.169 158.879 118.435 159.555 118.817Z" fill="black"/>
<g opacity="0.1">
<path opacity="0.1" d="M149.225 170.267C148.9 170.657 148.489 170.965 148.024 171.168C145.895 172.187 143.466 172.39 141.196 171.739C140.933 172.059 140.648 172.362 140.344 172.645C141.574 173.13 142.891 173.356 144.213 173.309C145.534 173.261 146.832 172.941 148.024 172.369C148.489 172.166 148.9 171.858 149.225 171.468C149.432 171.169 149.573 170.829 149.639 170.471C149.705 170.112 149.695 169.745 149.61 169.391C149.55 169.708 149.418 170.008 149.225 170.267Z" fill="black"/>
<path opacity="0.1" d="M142.71 150.156C142.906 150.943 143.021 151.748 143.052 152.559C143.121 151.347 143.006 150.132 142.71 148.955C142.344 147.526 141.707 146.145 141.593 144.674C141.593 144.488 141.593 144.302 141.563 144.109C141.534 144.698 141.544 145.288 141.593 145.875C141.707 147.346 142.344 148.727 142.71 150.156Z" fill="black"/>
<path opacity="0.1" d="M173.791 158.011C174.046 156.423 174.155 154.815 174.116 153.207C174.095 154.414 173.986 155.618 173.791 156.81C173.485 158.612 172.951 160.413 172.71 162.251C172.587 163.236 172.54 164.23 172.572 165.223C172.589 164.631 172.635 164.04 172.71 163.452C172.951 161.614 173.485 159.831 173.791 158.011Z" fill="black"/>
<path opacity="0.1" d="M142.591 160.586C142.276 159.995 142.023 159.373 141.834 158.73C141.783 158.947 141.759 159.169 141.762 159.391C141.875 160.239 142.157 161.056 142.591 161.793C143.032 162.8 143.286 163.878 143.341 164.976C143.45 163.473 143.192 161.967 142.591 160.586Z" fill="black"/>
<path opacity="0.1" d="M168.335 154.757C168.388 155.031 168.426 155.307 168.449 155.585C168.449 155.495 168.449 155.411 168.449 155.321C168.477 154.729 168.432 154.137 168.317 153.556C168.185 152.925 167.969 152.301 167.867 151.664C167.837 151.806 167.819 151.951 167.812 152.096C167.877 153.001 168.052 153.895 168.335 154.757Z" fill="black"/>
<path opacity="0.1" d="M164.551 170.908C164.459 170.811 164.373 170.709 164.293 170.602C164.145 170.842 164.084 171.126 164.119 171.406C164.194 171.676 164.344 171.92 164.551 172.109C165.783 173.432 167.294 174.462 168.975 175.126C170.656 175.79 172.464 176.07 174.268 175.946C174.165 175.55 174.063 175.159 173.967 174.745C172.214 174.826 170.463 174.524 168.837 173.862C167.212 173.199 165.749 172.191 164.551 170.908Z" fill="black"/>
<path opacity="0.1" d="M169.746 146.113C169.743 146.092 169.743 146.069 169.746 146.047C170.088 143.838 168.257 141.916 166.413 140.643C165.008 139.668 163.482 138.879 161.874 138.295C160.886 137.941 159.863 137.693 158.823 137.556C156.884 137.294 154.91 137.515 153.076 138.199C152.317 138.485 151.599 138.869 150.938 139.34C150.545 139.588 150.217 139.928 149.983 140.331C149.791 140.783 149.705 141.274 149.731 141.766C149.731 142.18 149.731 142.595 149.731 143.015V142.967C149.705 142.475 149.791 141.985 149.983 141.532C150.217 141.129 150.545 140.79 150.938 140.541C151.599 140.07 152.317 139.686 153.076 139.4C154.91 138.716 156.884 138.495 158.823 138.757C159.863 138.895 160.886 139.142 161.874 139.496C163.482 140.08 165.008 140.869 166.413 141.844C167.945 142.877 169.452 144.366 169.746 146.113Z" fill="black"/>
<path opacity="0.1" d="M148.811 148.99C148.21 150.137 147.189 151.068 146.691 152.281C146.487 152.785 146.36 153.318 146.313 153.86C146.253 154.422 146.223 154.988 146.223 155.553C146.223 156.064 146.223 156.58 146.223 157.097C146.223 156.983 146.223 156.868 146.223 156.754C146.223 156.189 146.253 155.623 146.313 155.061C146.36 154.519 146.487 153.986 146.691 153.482C147.189 152.281 148.186 151.338 148.811 150.191C149.778 148.389 149.76 146.318 149.742 144.258C149.821 145.887 149.502 147.512 148.811 148.99Z" fill="black"/>
</g>
<path opacity="0.1" d="M172.772 142.16C172.69 142.277 172.593 142.384 172.484 142.478C172.272 142.652 172.036 142.794 171.782 142.898C170.034 143.655 170.106 141.187 169.193 140.34C168.608 139.908 167.89 139.696 167.164 139.74C165.406 139.652 163.647 139.573 161.885 139.505C158.949 139.397 156.018 139.343 153.088 139.409C151.683 139.433 150.281 139.491 148.884 139.583C147.263 139.692 145.521 139.902 144.14 140.67C143.668 140.931 143.24 141.265 142.873 141.661C142.543 142.022 142.195 142.478 141.738 142.562C142.067 140.597 142.933 138.762 144.24 137.258C145.546 135.754 147.243 134.641 149.143 134.041C152.218 131.75 156.059 130.737 159.864 131.212C163.669 131.688 167.143 133.616 169.56 136.593C170.624 137.488 171.474 138.61 172.046 139.878C172.367 140.611 172.611 141.376 172.772 142.16Z" fill="black"/>
<path d="M171.781 141.696C170.034 142.453 170.106 139.985 169.193 139.138C168.608 138.706 167.889 138.494 167.163 138.537C161.078 138.137 154.975 138.085 148.884 138.381C146.716 138.525 144.338 138.85 142.879 140.459C142.507 140.867 142.116 141.396 141.558 141.378C141.372 140.177 141.239 138.928 141.149 137.697C141.095 137.236 141.119 136.769 141.221 136.316C141.372 135.799 141.714 135.361 141.888 134.856C142.059 134.215 142.12 133.549 142.068 132.887C142.094 130.437 142.753 128.035 143.979 125.914C145.206 123.793 146.96 122.025 149.07 120.78C149.6 120.521 150.091 120.19 150.529 119.796C150.682 119.614 150.848 119.446 151.028 119.291C151.375 119.077 151.781 118.981 152.187 119.015C152.475 119.015 152.787 119.015 153.039 119.015C153.816 118.929 154.575 118.727 155.291 118.414C155.952 118.13 156.668 117.995 157.387 118.018C158.15 118.157 158.885 118.423 159.561 118.805C159.886 118.961 160.226 119.084 160.576 119.171C161.122 119.297 161.687 119.291 162.233 119.399C163.118 119.625 163.959 119.998 164.719 120.504C165.627 120.994 166.467 121.599 167.217 122.306C168.034 123.239 168.687 124.303 169.151 125.452C169.946 127.041 170.551 128.718 170.953 130.449C171.439 132.935 171.199 135.625 172.352 137.883C173.054 139.3 173.697 140.873 171.781 141.696Z" fill="#FED253"/>
<path opacity="0.1" d="M141.34 139.812C141.34 139.812 153.788 128.486 172.326 137.878C172.326 137.878 151.398 133.116 141.34 139.812Z" fill="black"/>
<path d="M5.69702 197.679C4.0036 194.905 1.45745 192.365 1.85378 189.218C6.51371 189.752 10.9334 188.618 15.203 186.642C19.4726 184.666 23.436 182.102 27.4354 179.586C29.0087 178.595 30.576 177.622 32.1373 176.721C34.6114 175.304 37.0675 173.719 39.5836 172.332C43.1867 170.35 46.8618 168.729 50.9092 168.416C51.6423 168.359 52.378 168.341 53.113 168.362C58.0973 168.458 63.2616 169.798 67.6453 167.564L67.9155 167.42C70.4016 166.056 72.2092 163.739 74.341 161.859C75.8736 160.533 77.5423 159.374 79.3192 158.4C82.5559 156.598 86.0629 155.157 89.3717 153.458C90.2186 153.022 91.0228 152.507 91.7737 151.921L92.3381 151.47L92.4643 151.362C92.6024 151.248 92.7405 151.134 92.8726 151.014L93.1308 150.786L93.395 150.545L93.5992 150.353L93.9295 150.041L93.9655 149.999L94.488 149.482L94.6981 149.272L95.0645 148.894L95.2806 148.678C95.6469 148.299 96.0133 147.915 96.3856 147.543C96.7579 147.171 97.2623 146.666 97.7127 146.252L98.1451 145.867L98.2712 145.759L98.6195 145.471L98.7816 145.333L99.1239 145.069L99.292 144.937C99.4602 144.811 99.6343 144.69 99.8084 144.57C99.9687 144.459 100.137 144.361 100.313 144.276L99.1899 141.556L102.421 140.223L146.978 248.344L143.742 249.677L118.256 187.825L118.076 188.005C112.172 193.831 104.941 198.134 97.0041 200.544H96.956C92.5183 201.883 87.5521 202.832 83.817 205.318C82.4925 206.178 81.3416 207.28 80.4241 208.566C79.5474 209.815 78.9348 211.239 78.0221 212.44C77.8479 212.662 77.6558 212.878 77.4636 213.082C76.3715 214.165 75.1632 215.123 73.8606 215.941L73.2901 216.331C69.4211 219.053 65.3903 221.538 61.2199 223.771C58.8133 225.024 56.3041 226.068 53.7196 226.894C51.84 227.494 49.9003 227.933 48.0207 228.527C46.7564 228.91 45.5285 229.404 44.3517 230.004C41.169 231.668 38.7249 234.274 36.4129 237.054C34.3892 239.492 32.4676 242.075 30.2457 244.297C28.8526 245.678 26.7328 246.987 25.0514 246.176L24.7091 245.978C24.7631 245.888 24.8051 245.798 24.8532 245.702C26.1803 242.921 24.5469 239.486 22.3491 237.259C22.1209 237.024 21.8867 236.796 21.6465 236.58C21.4063 236.364 20.9739 235.979 20.6316 235.679C18.752 234.064 16.7524 232.563 15.4493 230.479C14.4547 228.728 13.7796 226.815 13.4556 224.828C12.8551 222 12.4527 219.087 10.9154 216.679C9.90657 215.088 8.40531 213.731 7.31239 212.205C6.62153 211.303 6.16738 210.242 5.99127 209.119C5.74506 207.167 6.65183 205.258 6.99412 203.312C7.09595 202.782 7.13824 202.242 7.12022 201.703C6.99478 200.262 6.50502 198.878 5.69702 197.679Z" fill="url(#paint0_linear_16572_99452)"/>
<path d="M142.612 248.753L145.793 247.441L101.978 141.138L98.7966 142.449L142.612 248.753Z" fill="#D6D8E1"/>
<path d="M11.9929 216.304C13.5002 218.676 13.9025 221.534 14.485 224.314C14.8081 226.269 15.4728 228.151 16.4486 229.875C17.7337 231.923 19.6974 233.4 21.5409 234.985C21.8772 235.28 22.2135 235.586 22.5378 235.874C22.772 236.084 23.0062 236.313 23.2284 236.535C25.3902 238.727 26.9936 242.107 25.6905 244.84C25.6504 244.933 25.6043 245.023 25.5523 245.11C25.6578 245.182 25.7682 245.246 25.8826 245.302C27.54 246.107 29.6238 244.822 30.9929 243.459C33.1788 241.273 35.0704 238.739 37.058 236.343C39.328 233.604 41.736 231.04 44.8646 229.407C46.0196 228.815 47.2255 228.329 48.4677 227.954C50.3112 227.353 52.2208 226.927 54.0704 226.35C56.6108 225.538 59.0778 224.511 61.4446 223.282C65.5518 221.083 69.5224 218.639 73.3347 215.961L73.8991 215.577C75.1793 214.775 76.3674 213.834 77.4421 212.773C77.6343 212.569 77.8204 212.358 77.9946 212.136C78.9194 210.935 79.5259 209.56 80.3966 208.329C81.2997 207.064 82.4323 205.981 83.7354 205.134C87.4105 202.69 92.2867 201.753 96.6523 200.438H96.7004C104.502 198.065 111.611 193.835 117.418 188.11C117.899 187.708 118.259 187.18 118.457 186.585C118.643 185.738 118.187 184.897 117.748 184.153C117.238 183.276 116.739 182.399 116.247 181.51C114.032 177.48 112.055 173.323 110.326 169.062C109.948 168.125 109.581 167.194 109.227 166.251C108.318 163.849 107.489 161.413 106.741 158.943C106.495 158.127 106.254 157.304 106.026 156.481C105.984 156.325 105.936 156.157 105.894 155.977C104.897 151.971 103.564 142.597 99.4567 145.402C98.2351 146.275 97.0991 147.263 96.0639 148.35C95.2652 149.161 94.4845 149.996 93.6618 150.8C92.9917 151.459 92.2839 152.079 91.542 152.656C90.7891 153.233 89.9851 153.739 89.14 154.169C85.8793 155.839 82.4323 157.238 79.2557 159.027C77.5063 159.983 75.8637 161.123 74.3555 162.426C72.2598 164.276 70.4823 166.558 68.0382 167.897L67.774 168.041C63.4623 170.233 58.3881 168.918 53.4819 168.822C52.7608 168.803 52.0393 168.822 51.3201 168.876C47.3387 169.176 43.6996 170.773 40.1807 172.725C37.7066 174.094 35.2926 175.643 32.8605 177.043C31.3232 177.925 29.7859 178.88 28.2366 179.859C24.3093 182.333 20.3279 184.927 16.2265 186.801C12.0229 188.71 7.68125 189.851 3.09938 189.329C2.70905 192.422 5.20716 194.92 6.87657 197.646C7.67838 198.818 8.16443 200.177 8.28776 201.591C8.30983 202.12 8.27155 202.65 8.17366 203.171C7.83738 205.086 6.97265 206.96 7.18883 208.887C7.35924 209.987 7.80321 211.025 8.47992 211.908C9.52481 213.403 10.996 214.742 11.9929 216.304Z" fill="#F86D70"/>
<path d="M134.08 228.812C134.08 228.812 139.34 233.4 144.673 235.844C150.005 238.289 146.474 247.056 146.474 247.056C146.474 247.056 140.824 248.353 136.866 242.852C132.909 237.352 134.08 228.812 134.08 228.812Z" fill="#FBBEBE"/>
<path d="M417.545 306.907C417.545 306.907 403.613 325.24 392.053 325.39C380.493 325.54 373.708 333.113 379.196 337.845C384.685 342.577 444.495 335.143 444.495 335.143C444.495 335.143 445.06 312.612 439.877 309.321C434.695 306.03 417.545 306.907 417.545 306.907Z" fill="#444176"/>
<path d="M567.339 328.916C567.339 328.916 569.471 343.436 562.884 353.339C556.296 363.241 574.786 367.06 574.786 367.06C574.786 367.06 588.219 370.801 589.198 357.53C590.177 344.259 589.858 334.11 588.597 333.03C587.336 331.949 586.285 324.484 586.285 324.484L567.339 328.916Z" fill="#444176"/>
<path d="M356.442 356.339C356.442 356.339 355.955 309.374 402.428 290.283L413.22 269.752L418.396 257.141C420.27 252.574 423.219 248.526 426.992 245.342C430.765 242.158 435.251 239.931 440.068 238.85L448.439 236.97L451.027 226.065C452.406 220.236 455.462 214.938 459.817 210.826C464.172 206.713 469.636 203.965 475.534 202.922C480.624 201.977 485.79 201.494 490.967 201.48C493.258 201.515 495.501 202.141 497.478 203.299C499.455 204.456 501.099 206.105 502.251 208.086C502.251 208.086 546.28 207.6 548.231 231.572C548.231 231.572 552.639 253.58 558.999 257.496C558.999 257.496 569.76 255.052 580.521 270.707L592.261 310.821C592.261 310.821 623.079 339.681 613.783 366.067C613.783 366.067 601.064 384.167 536.492 371.934C536.492 371.934 467.517 392.952 430.802 364.128C430.796 364.164 369.653 375.904 356.442 356.339Z" fill="#A5B3BF"/>
<path opacity="0.1" d="M387.262 349.001C387.262 349.001 397.05 335.303 396.558 325.515C396.065 315.727 398.864 291.887 398.864 291.887" stroke="black" stroke-miterlimit="10"/>
<path opacity="0.1" d="M422.973 312.312C422.973 312.312 432.755 294.212 431.776 284.43C431.776 284.43 442.051 265.814 449.875 267.304" stroke="black" stroke-miterlimit="10"/>
<path opacity="0.1" d="M476.785 260.943C476.785 260.943 503.688 251.161 505.159 243.336" stroke="black" stroke-miterlimit="10"/>
<path opacity="0.1" d="M486.566 283.452C486.566 283.452 514.94 270.734 514.94 267.305H529.118C529.118 267.305 549.668 294.213 547.224 305.953" stroke="black" stroke-miterlimit="10"/>
<path opacity="0.1" d="M519.836 303.014C519.836 303.014 492.441 301.057 482.653 308.887C472.864 316.718 455.258 320.627 455.258 320.627C455.258 320.627 444.983 342.642 441.068 346.551C437.152 350.46 430.793 364.164 430.793 364.164" stroke="black" stroke-miterlimit="10"/>
<path opacity="0.1" d="M519.836 328.945C519.836 328.945 522.766 339.214 526.682 345.087C530.597 350.96 536.464 371.99 536.464 371.99" stroke="black" stroke-miterlimit="10"/>
<path opacity="0.1" d="M565.816 358.785C565.816 358.785 572.026 376.062 577.484 376.23" stroke="black" stroke-miterlimit="10"/>
<path opacity="0.1" d="M525.145 284.629C525.145 284.629 541.274 288.989 548.018 299.551C554.761 310.114 575.359 319.692 575.359 319.692" stroke="black" stroke-miterlimit="10"/>
<path opacity="0.1" d="M532.062 232.59C532.062 232.59 532.062 255.091 538.422 255.091C544.781 255.091 558.971 257.535 558.971 257.535" stroke="black" stroke-miterlimit="10"/>
<path opacity="0.1" d="M500.894 205.867C500.894 205.867 499.266 244.738 490.949 254.803" stroke="black" stroke-miterlimit="10"/>
<g opacity="0.05">
<path opacity="0.05" d="M591.256 310.352L579.516 270.238C568.755 254.583 557.994 257.027 557.994 257.027C551.635 253.112 547.233 231.097 547.233 231.097C545.275 207.125 501.246 207.617 501.246 207.617C500.093 205.633 498.445 203.982 496.463 202.824C494.481 201.667 492.234 201.042 489.939 201.012C487.861 201.012 485.735 201.078 483.609 201.252C484.81 201.372 485.961 201.542 487.062 201.762L490.485 207.635C490.485 207.635 534.508 207.143 536.466 231.115C536.466 231.115 540.874 253.13 547.233 257.045C547.233 257.045 557.994 254.595 568.755 270.256L580.495 310.37C580.495 310.37 611.313 339.23 602.017 365.617C602.017 365.617 595.742 374.546 569.638 375.627C604.834 376.918 612.778 365.617 612.778 365.617C622.074 339.212 591.256 310.352 591.256 310.352Z" fill="black"/>
<path opacity="0.05" d="M419.059 363.672C408.704 365.535 398.232 366.681 387.719 367.101C399.975 367.569 412.724 366.242 420.939 365.113C420.302 364.627 419.678 364.158 419.059 363.672Z" fill="black"/>
<path opacity="0.05" d="M524.726 371.5C509.666 375.724 494.164 378.174 478.535 378.802C501.084 379.619 522.444 374.917 531.248 372.659C529.122 372.305 526.966 371.902 524.726 371.5Z" fill="black"/>
</g>
<path d="M133.824 447.803C133.824 447.803 147.282 447.389 151.335 444.5C155.388 441.612 172.028 438.165 173.037 442.795C174.046 447.425 193.256 465.824 178.064 465.95C162.871 466.076 142.772 463.584 138.724 461.116C134.677 458.648 133.824 447.803 133.824 447.803Z" fill="#A5B3BF"/>
<path opacity="0.2" d="M178.34 464.335C163.147 464.461 143.042 461.969 138.995 459.53C135.914 457.651 134.683 450.913 134.275 447.809H133.824C133.824 447.809 134.677 458.66 138.724 461.122C142.772 463.584 162.877 466.076 178.064 465.956C182.453 465.92 183.967 464.359 183.882 462.047C183.276 463.44 181.601 464.31 178.34 464.335Z" fill="black"/>
<path d="M461.902 414.054C461.902 414.054 446.055 410.883 441.833 406.655C437.612 402.428 418.594 395.042 416.48 400.32C414.366 405.599 387.962 423.56 405.917 426.742C423.872 429.925 448.169 430.946 453.453 428.856C458.738 426.766 461.902 414.054 461.902 414.054Z" fill="#A5B3BF"/>
<path opacity="0.2" d="M405.917 424.749C423.878 427.914 448.169 428.953 453.453 426.857C457.471 425.247 460.269 417.519 461.374 413.922L461.902 414.036C461.902 414.036 458.732 426.707 453.453 428.82C448.175 430.934 423.878 429.877 405.917 426.707C400.735 425.794 399.251 423.644 399.81 420.93C400.254 422.719 402.062 424.082 405.917 424.749Z" fill="black"/>
<path opacity="0.1" d="M310.162 68.9681H306.391C307.092 68.9681 307.764 68.6897 308.259 68.1942C308.755 67.6987 309.033 67.0266 309.033 66.3258C309.033 65.6251 308.755 64.953 308.259 64.4575C307.764 63.962 307.092 63.6836 306.391 63.6836H275.837C275.136 63.6836 274.464 63.962 273.969 64.4575C273.473 64.953 273.195 65.6251 273.195 66.3258C273.195 67.0266 273.473 67.6987 273.969 68.1942C274.464 68.6897 275.136 68.9681 275.837 68.9681H279.608C278.93 69.0004 278.29 69.2926 277.822 69.784C277.353 70.2754 277.092 70.9283 277.092 71.6073C277.092 72.2862 277.353 72.9392 277.822 73.4306C278.29 73.922 278.93 74.2142 279.608 74.2465H274.33C273.629 74.2465 272.957 74.5249 272.461 75.0204C271.966 75.5159 271.688 76.188 271.688 76.8887C271.688 77.5895 271.966 78.2616 272.461 78.7571C272.957 79.2526 273.629 79.531 274.33 79.531H304.884C305.584 79.531 306.256 79.2526 306.752 78.7571C307.247 78.2616 307.526 77.5895 307.526 76.8887C307.526 76.188 307.247 75.5159 306.752 75.0204C306.256 74.5249 305.584 74.2465 304.884 74.2465H310.162C310.519 74.2636 310.876 74.2079 311.211 74.083C311.546 73.958 311.852 73.7664 312.111 73.5196C312.37 73.2729 312.576 72.9762 312.717 72.6474C312.858 72.3187 312.93 71.9649 312.93 71.6073C312.93 71.2497 312.858 70.8958 312.717 70.5671C312.576 70.2384 312.37 69.9417 312.111 69.6949C311.852 69.4482 311.546 69.2565 311.211 69.1316C310.876 69.0067 310.519 68.951 310.162 68.9681Z" fill="white"/>
<path opacity="0.1" d="M428.833 161.934H425.061C425.74 161.901 426.379 161.609 426.848 161.118C427.316 160.626 427.578 159.974 427.578 159.295C427.578 158.616 427.316 157.963 426.848 157.471C426.379 156.98 425.74 156.688 425.061 156.655H394.478C394.12 156.638 393.764 156.694 393.428 156.819C393.093 156.944 392.787 157.135 392.528 157.382C392.27 157.629 392.064 157.926 391.923 158.254C391.782 158.583 391.709 158.937 391.709 159.295C391.709 159.652 391.782 160.006 391.923 160.335C392.064 160.663 392.27 160.96 392.528 161.207C392.787 161.454 393.093 161.645 393.428 161.77C393.764 161.895 394.12 161.951 394.478 161.934H398.249C397.571 161.966 396.931 162.258 396.462 162.75C395.994 163.241 395.733 163.894 395.733 164.573C395.733 165.252 395.994 165.905 396.462 166.396C396.931 166.888 397.571 167.18 398.249 167.212H392.97C392.27 167.212 391.598 167.491 391.102 167.986C390.606 168.482 390.328 169.154 390.328 169.854C390.328 170.555 390.606 171.227 391.102 171.723C391.598 172.218 392.27 172.497 392.97 172.497H423.518C424.219 172.497 424.891 172.218 425.387 171.723C425.882 171.227 426.16 170.555 426.16 169.854C426.16 169.154 425.882 168.482 425.387 167.986C424.891 167.491 424.219 167.212 423.518 167.212H428.833C429.19 167.229 429.547 167.174 429.882 167.049C430.217 166.924 430.523 166.732 430.782 166.485C431.041 166.239 431.247 165.942 431.387 165.613C431.528 165.284 431.601 164.931 431.601 164.573C431.601 164.215 431.528 163.862 431.387 163.533C431.247 163.204 431.041 162.907 430.782 162.661C430.523 162.414 430.217 162.222 429.882 162.097C429.547 161.972 429.19 161.917 428.833 161.934Z" fill="white"/>
<path opacity="0.1" d="M252.986 144.735H249.215C249.572 144.752 249.929 144.696 250.264 144.571C250.599 144.446 250.906 144.254 251.164 144.008C251.423 143.761 251.629 143.464 251.77 143.136C251.911 142.807 251.983 142.453 251.983 142.095C251.983 141.738 251.911 141.384 251.77 141.055C251.629 140.726 251.423 140.43 251.164 140.183C250.906 139.936 250.599 139.745 250.264 139.62C249.929 139.495 249.572 139.439 249.215 139.456H218.656C218.298 139.439 217.941 139.495 217.606 139.62C217.271 139.745 216.965 139.936 216.706 140.183C216.447 140.43 216.241 140.726 216.101 141.055C215.96 141.384 215.887 141.738 215.887 142.095C215.887 142.453 215.96 142.807 216.101 143.136C216.241 143.464 216.447 143.761 216.706 144.008C216.965 144.254 217.271 144.446 217.606 144.571C217.941 144.696 218.298 144.752 218.656 144.735H222.427C222.07 144.718 221.713 144.773 221.378 144.898C221.043 145.023 220.736 145.215 220.478 145.461C220.219 145.708 220.013 146.005 219.872 146.334C219.731 146.662 219.659 147.016 219.659 147.374C219.659 147.731 219.731 148.085 219.872 148.414C220.013 148.743 220.219 149.039 220.478 149.286C220.736 149.533 221.043 149.725 221.378 149.85C221.713 149.974 222.07 150.03 222.427 150.013H217.142C216.441 150.013 215.769 150.291 215.274 150.787C214.778 151.282 214.5 151.955 214.5 152.655C214.5 153.356 214.778 154.028 215.274 154.524C215.769 155.019 216.441 155.298 217.142 155.298H247.696C248.397 155.298 249.069 155.019 249.564 154.524C250.06 154.028 250.338 153.356 250.338 152.655C250.338 151.955 250.06 151.282 249.564 150.787C249.069 150.291 248.397 150.013 247.696 150.013H252.974C253.332 150.03 253.689 149.974 254.024 149.85C254.359 149.725 254.665 149.533 254.924 149.286C255.182 149.039 255.389 148.743 255.529 148.414C255.67 148.085 255.743 147.731 255.743 147.374C255.743 147.016 255.67 146.662 255.529 146.334C255.389 146.005 255.182 145.708 254.924 145.461C254.665 145.215 254.359 145.023 254.024 144.898C253.689 144.773 253.332 144.718 252.974 144.735H252.986Z" fill="white"/>
</g>
<defs>
<linearGradient id="paint0_linear_16572_99452" x1="-435522" y1="39355.5" x2="-470625" y2="39355.5" gradientUnits="userSpaceOnUse">
<stop stop-color="#808080" stop-opacity="0.25"/>
<stop offset="0.54" stop-color="#808080" stop-opacity="0.12"/>
<stop offset="1" stop-color="#808080" stop-opacity="0.1"/>
</linearGradient>
<clipPath id="clip0_16572_99452">
<rect width="619.867" height="500" fill="white"/>
</clipPath>
</defs>
</svg>
